<svg width="188" height="189" viewBox="0 0 188 189" fill="none" xmlns="http://www.w3.org/2000/svg">
<rect width="129" height="76" transform="translate(29 48)" fill="white"/>
<rect x="29" y="48" width="129" height="76" fill="white"/>
<g filter="url(#filter0_d)">
<circle cx="94.0382" cy="86.0382" r="30.0382" fill="#43738D"/>
<circle cx="96.4141" cy="86.0382" r="30.0382" fill="#63A2C5"/>
</g>
<path d="M81.3102 63.9763L78.7645 61.4306C95.0565 51.2482 110.67 58.885 116.44 63.9763H115.252H113.215L111.518 62.7883H109.651C109.086 62.6186 107.717 62.381 106.766 62.7883C105.578 63.2974 104.56 63.9763 105.918 66.1825C107.004 66.7255 106.37 67.0876 105.918 67.2007C105.918 67.7098 106.189 69.1693 107.275 70.9343C107.683 71.7489 108.237 72.2919 108.463 72.4616C108.859 73.0273 109.651 74.7018 109.651 76.874V78.2317C110.274 78.5145 111.518 79.7251 111.518 82.3047C111.382 83.255 110.217 82.7006 109.651 82.3047C109.086 81.6824 107.717 80.3361 106.766 79.9288C105.816 79.5215 105.805 80.551 105.918 81.1167V82.3047L104.56 84.8503H102.863H100.487H99.1294C98.79 85.416 98.1112 85.9364 98.1112 83.4926C98.1112 82.5422 98.79 82.3047 99.1294 82.3047L100.148 81.1167C100.261 80.4379 100.419 78.9105 100.148 78.2317C99.8761 77.5529 100.261 77.0437 100.487 76.874V75.6861V74.1587L99.1294 72.4616V71.6131L98.1112 69.916C96.9798 69.52 94.4116 69.4748 93.1897 72.4616C92.7824 73.1405 91.7754 72.7445 91.3229 72.4616L90.9835 74.1587V75.6861C91.2098 76.2518 91.6623 77.7226 91.6623 79.0802V80.4379L90.9835 81.1167L89.6258 82.3047H88.4379H86.4014H85.2134H83.3466C83.0072 81.8521 82.1248 80.5736 81.3102 79.0802C80.2919 77.2134 81.3102 77.3831 81.3102 71.6131C81.3102 70.527 82.6678 70.0292 83.3466 69.916H85.2134L86.4014 68.7281V67.2007L85.2134 66.1825L84.3649 65.5036L83.3466 63.9763H81.3102Z" fill="#0D6641"/>
<path d="M83.3466 85.5291H82.1587C81.8758 86.3776 81.3102 88.6178 81.3102 90.79C81.3102 91.6046 80.4051 92.374 79.9525 92.6568L78.7645 93.8448C77.8594 94.5802 76.0492 96.2207 76.0492 96.8995V98.7663L76.8978 101.651L78.7645 104.197V106.573V110.985C84.3649 113.531 100.487 120.632 113.215 110.985C129.337 98.7663 127.131 82.3612 124.076 75.6861C124.076 75.6861 121.734 78.1977 116.44 83.4926C114.912 84.6806 116.44 84.8503 115.252 85.5291C114.301 86.0722 113.498 86.6605 113.215 86.8868C112.649 87.2827 111.145 88.0747 109.651 88.0747H106.766H100.487C99.2652 87.6674 98.394 87.905 98.1112 88.0747C97.6586 87.905 96.5838 87.4298 95.905 86.8868C95.2262 86.3437 93.8119 85.7554 93.1897 85.5291C92.4543 84.8503 90.7119 83.4926 89.6258 83.4926C88.2682 83.4926 87.5893 84.0017 84.3649 84.8503C83.6861 84.8503 83.4032 85.3028 83.3466 85.5291Z" fill="#0D6641"/>
<g filter="url(#filter1_d)">
<path d="M68.4124 108.1C96.7535 117.604 128.217 106.267 129.846 94.1842C130.922 86.2079 126.113 77.3831 122.719 77.3831M122.719 77.3831L124.416 85.6988M122.719 77.3831H129.846" stroke="url(#paint0_linear)" stroke-width="3" stroke-linecap="round" stroke-linejoin="round"/>
</g>
<path d="M113.605 74.878C113.728 74.1734 114.739 74.1734 114.862 74.878V74.878C114.908 75.1431 115.116 75.3507 115.381 75.3969V75.3969C116.085 75.5198 116.085 76.5312 115.381 76.654V76.654C115.116 76.7003 114.908 76.9079 114.862 77.173V77.173C114.739 77.8775 113.728 77.8775 113.605 77.173V77.173C113.559 76.9079 113.351 76.7003 113.086 76.654V76.654C112.381 76.5312 112.381 75.5198 113.086 75.3969V75.3969C113.351 75.3507 113.559 75.1431 113.605 74.878V74.878Z" fill="#FFF505"/>
<path d="M170.375 118.125H164.5V47.25C164.5 45.6836 163.881 44.1813 162.779 43.0737C161.677 41.966 160.183 41.3438 158.625 41.3438H29.375C27.8169 41.3438 26.3225 41.966 25.2207 43.0737C24.119 44.1813 23.5 45.6836 23.5 47.25V118.125H17.625C16.0669 118.125 14.5725 118.747 13.4707 119.855C12.369 120.963 11.75 122.465 11.75 124.031V141.75C11.75 143.316 12.369 144.819 13.4707 145.926C14.5725 147.034 16.0669 147.656 17.625 147.656H170.375C171.933 147.656 173.427 147.034 174.529 145.926C175.631 144.819 176.25 143.316 176.25 141.75V124.031C176.25 122.465 175.631 120.963 174.529 119.855C173.427 118.747 171.933 118.125 170.375 118.125ZM35.25 53.1562H152.75V118.125H35.25V53.1562ZM164.5 135.844H23.5V129.938H164.5V135.844Z" fill="black"/>
<defs>
<filter id="filter0_d" x="60" y="56" width="70.4523" height="68.0764" filterUnits="userSpaceOnUse" color-interpolation-filters="sRGB">
<feFlood flood-opacity="0" result="BackgroundImageFix"/>
<feColorMatrix in="SourceAlpha" type="matrix" values="0 0 0 0 0 0 0 0 0 0 0 0 0 0 0 0 0 0 127 0"/>
<feOffset dy="4"/>
<feGaussianBlur stdDeviation="2"/>
<feColorMatrix type="matrix" values="0 0 0 0 0 0 0 0 0 0 0 0 0 0 0 0 0 0 0.25 0"/>
<feBlend mode="normal" in2="BackgroundImageFix" result="effect1_dropShadow"/>
<feBlend mode="normal" in="SourceGraphic" in2="effect1_dropShadow" result="shape"/>
</filter>
<filter id="filter1_d" x="62.912" y="75.8831" width="72.5881" height="45.2567" filterUnits="userSpaceOnUse" color-interpolation-filters="sRGB">
<feFlood flood-opacity="0" result="BackgroundImageFix"/>
<feColorMatrix in="SourceAlpha" type="matrix" values="0 0 0 0 0 0 0 0 0 0 0 0 0 0 0 0 0 0 127 0"/>
<feOffset dy="4"/>
<feGaussianBlur stdDeviation="2"/>
<feColorMatrix type="matrix" values="0 0 0 0 0 0 0 0 0 0 0 0 0 0 0 0 0 0 0.25 0"/>
<feBlend mode="normal" in2="BackgroundImageFix" result="effect1_dropShadow"/>
<feBlend mode="normal" in="SourceGraphic" in2="effect1_dropShadow" result="shape"/>
</filter>
<linearGradient id="paint0_linear" x1="99.2062" y1="77.3831" x2="99.2062" y2="111.64" gradientUnits="userSpaceOnUse">
<stop offset="0.732292" stop-color="#0000FF"/>
<stop offset="1" stop-color="#FF0000"/>
<stop offset="1" stop-color="#FF0000"/>
</linearGradient>
</defs>
</svg>
