<svg width="166" height="107" viewBox="0 0 166 107" fill="none" xmlns="http://www.w3.org/2000/svg">
<g filter="url(#filter0_d)">
<circle cx="83.0382" cy="45.0382" r="30.0382" fill="#43738D"/>
<circle cx="85.4141" cy="45.0382" r="30.0382" fill="#63A2C5"/>
</g>
<path d="M70.3102 22.9763L67.7645 20.4306C84.0565 10.2482 99.6695 17.885 105.44 22.9763H104.252H102.215L100.518 21.7883H98.6513C98.0856 21.6186 96.7166 21.381 95.7663 21.7883C94.5783 22.2974 93.5601 22.9763 94.9177 25.1825C96.0039 25.7255 95.3703 26.0876 94.9177 26.2007C94.9177 26.7098 95.1893 28.1693 96.2754 29.9343C96.6827 30.7489 97.2371 31.2919 97.4633 31.4616C97.8593 32.0273 98.6513 33.7018 98.6513 35.874V37.2317C99.2736 37.5145 100.518 38.7251 100.518 41.3047C100.382 42.255 99.217 41.7006 98.6513 41.3047C98.0856 40.6824 96.7166 39.3361 95.7663 38.9288C94.8159 38.5215 94.8046 39.551 94.9177 40.1167V41.3047L93.5601 43.8503H91.863H89.4871H88.1294C87.79 44.416 87.1112 44.9364 87.1112 42.4926C87.1112 41.5422 87.79 41.3047 88.1294 41.3047L89.1477 40.1167C89.2608 39.4379 89.4192 37.9105 89.1477 37.2317C88.8761 36.5529 89.2608 36.0437 89.4871 35.874V34.6861V33.1587L88.1294 31.4616V30.6131L87.1112 28.916C85.9798 28.52 83.4116 28.4748 82.1897 31.4616C81.7824 32.1405 80.7754 31.7445 80.3229 31.4616L79.9835 33.1587V34.6861C80.2098 35.2518 80.6623 36.7226 80.6623 38.0802V39.4379L79.9835 40.1167L78.6258 41.3047H77.4379H75.4014H74.2134H72.3466C72.0072 40.8521 71.1248 39.5736 70.3102 38.0802C69.2919 36.2134 70.3102 36.3831 70.3102 30.6131C70.3102 29.527 71.6678 29.0292 72.3466 28.916H74.2134L75.4014 27.7281V26.2007L74.2134 25.1825L73.3649 24.5036L72.3466 22.9763H70.3102Z" fill="#0D6641"/>
<path d="M72.3466 44.5291H71.1587C70.8758 45.3776 70.3102 47.6178 70.3102 49.79C70.3102 50.6046 69.4051 51.374 68.9525 51.6568L67.7645 52.8448C66.8594 53.5802 65.0492 55.2207 65.0492 55.8995V57.7663L65.8978 60.6513L67.7645 63.1969V65.5728V69.9852C73.3649 72.5308 89.4871 79.6317 102.215 69.9852C118.337 57.7663 116.131 41.3612 113.076 34.6861C113.076 34.6861 110.734 37.1977 105.44 42.4926C103.912 43.6806 105.44 43.8503 104.252 44.5291C103.301 45.0722 102.498 45.6605 102.215 45.8868C101.649 46.2827 100.145 47.0747 98.6513 47.0747H95.7663H89.4871C88.2652 46.6674 87.394 46.905 87.1112 47.0747C86.6586 46.905 85.5838 46.4298 84.905 45.8868C84.2262 45.3437 82.8119 44.7554 82.1897 44.5291C81.4543 43.8503 79.7119 42.4926 78.6258 42.4926C77.2682 42.4926 76.5893 43.0017 73.3649 43.8503C72.6861 43.8503 72.4032 44.3028 72.3466 44.5291Z" fill="#0D6641"/>
<g filter="url(#filter1_d)">
<path d="M57.4124 67.1002C85.7535 76.6038 117.217 65.2673 118.846 53.1842C119.922 45.2079 115.113 36.3831 111.719 36.3831M111.719 36.3831L113.416 44.6988M111.719 36.3831H118.846" stroke="url(#paint0_linear)" stroke-width="3" stroke-linecap="round" stroke-linejoin="round"/>
</g>
<path d="M102.605 33.878C102.728 33.1734 103.739 33.1734 103.862 33.878C103.908 34.1431 104.116 34.3507 104.381 34.3969C105.085 34.5198 105.085 35.5312 104.381 35.654C104.116 35.7003 103.908 35.9079 103.862 36.173C103.739 36.8775 102.728 36.8775 102.605 36.173C102.559 35.9079 102.351 35.7003 102.086 35.654C101.381 35.5312 101.381 34.5198 102.086 34.3969C102.351 34.3507 102.559 34.1431 102.605 33.878Z" fill="#FFF505"/>
<path d="M159.375 77.125H153.5V6.25C153.5 4.68357 152.881 3.18129 151.779 2.07365C150.677 0.966015 149.183 0.34375 147.625 0.34375H18.375C16.8169 0.34375 15.3225 0.966015 14.2207 2.07365C13.119 3.18129 12.5 4.68357 12.5 6.25V77.125H6.625C5.06685 77.125 3.57252 77.7473 2.47075 78.8549C1.36897 79.9625 0.75 81.4648 0.75 83.0312V100.75C0.75 102.316 1.36897 103.819 2.47075 104.926C3.57252 106.034 5.06685 106.656 6.625 106.656H159.375C160.933 106.656 162.427 106.034 163.529 104.926C164.631 103.819 165.25 102.316 165.25 100.75V83.0312C165.25 81.4648 164.631 79.9625 163.529 78.8549C162.427 77.7473 160.933 77.125 159.375 77.125ZM24.25 12.1562H141.75V77.125H24.25V12.1562ZM153.5 94.8438H12.5V88.9375H153.5V94.8438Z" fill="black"/>
<defs>
<filter id="filter0_d" x="49" y="15" width="70.4523" height="68.0764" filterUnits="userSpaceOnUse" color-interpolation-filters="sRGB">
<feFlood flood-opacity="0" result="BackgroundImageFix"/>
<feColorMatrix in="SourceAlpha" type="matrix" values="0 0 0 0 0 0 0 0 0 0 0 0 0 0 0 0 0 0 127 0"/>
<feOffset dy="4"/>
<feGaussianBlur stdDeviation="2"/>
<feColorMatrix type="matrix" values="0 0 0 0 0 0 0 0 0 0 0 0 0 0 0 0 0 0 0.25 0"/>
<feBlend mode="normal" in2="BackgroundImageFix" result="effect1_dropShadow"/>
<feBlend mode="normal" in="SourceGraphic" in2="effect1_dropShadow" result="shape"/>
</filter>
<filter id="filter1_d" x="51.912" y="34.8831" width="72.5881" height="45.2567" filterUnits="userSpaceOnUse" color-interpolation-filters="sRGB">
<feFlood flood-opacity="0" result="BackgroundImageFix"/>
<feColorMatrix in="SourceAlpha" type="matrix" values="0 0 0 0 0 0 0 0 0 0 0 0 0 0 0 0 0 0 127 0"/>
<feOffset dy="4"/>
<feGaussianBlur stdDeviation="2"/>
<feColorMatrix type="matrix" values="0 0 0 0 0 0 0 0 0 0 0 0 0 0 0 0 0 0 0.25 0"/>
<feBlend mode="normal" in2="BackgroundImageFix" result="effect1_dropShadow"/>
<feBlend mode="normal" in="SourceGraphic" in2="effect1_dropShadow" result="shape"/>
</filter>
<linearGradient id="paint0_linear" x1="88.2062" y1="36.3831" x2="88.2062" y2="70.6398" gradientUnits="userSpaceOnUse">
<stop offset="0.732292" stop-color="#0000FF"/>
<stop offset="1" stop-color="#FF0000"/>
<stop offset="1" stop-color="#FF0000"/>
</linearGradient>
</defs>
</svg>
